#!OML:ASF F:\VICON\USERDATA\INSTALL\rory3\rory3.ASF
:FULLY-SPECIFIED
:DEGREES
63
root -0.218142 18.1568 -11.1981 -4.18829 -1.08789 -4.2081
lowerback 10.937 -0.199613 2.09846
upperback 0.160753 0.164663 2.68839
thorax -5.97844 0.0595573 1.61223
lowerneck -16.0906 -2.83154 -1.72029
upperneck 22.8344 -3.46747 -0.203045
head 9.9436 -1.78016 -0.241483
rclavicle 1.73315e-014 -3.4191e-014
rhumerus -34.9404 -27.8142 -73.3455
rradius 19.7834
rwrist 9.35793
rhand -16.6411 23.3434
rfingers 7.12502
rthumb 9.5816 -6.41871
lclavicle 1.73315e-014 -3.4191e-014
lhumerus -28.749 6.17621 82.0647
lradius 29.5037
lwrist 6.91878
lhand -25.6308 27.1546
lfingers 7.12502
lthumb 0.902324 57.1324
rfemur -13.8503 7.22203 29.843
rtibia 28.1641
rfoot -8.63483 -3.56198
rtoes 9.47375
lfemur -9.71685 1.6439 -15.6381
ltibia 67.8004
lfoot 2.99613 -9.57613
ltoes 2.16555
64
root -0.228354 18.1692 -11.0374 -4.21147 -1.15683 -4.13774
lowerback 10.9072 -0.157185 2.06699
upperback 0.153674 0.211494 2.61176
thorax -5.96939 0.0823493 1.5417
lowerneck -16.1116 -2.73596 -1.5707
upperneck 23.0121 -3.34349 -0.325637
head 10.0047 -1.72396 -0.294925
rclavicle -1.36664e-014 -1.55052e-014
rhumerus -34.2345 -27.4926 -73.802
rradius 19.9381
rwrist 9.38692
rhand -17.4327 21.4013
rfingers 7.12502
rthumb 8.8178 -8.39448
lclavicle -1.36664e-014 -1.55052e-014
lhumerus -29.1218 6.43598 81.9285
lradius 29.4078
lwrist 7.28629
lhand -24.5252 29.5559
lfingers 7.12502
lthumb 1.97013 59.5265
rfemur -13.0875 7.19971 29.8907
rtibia 28.0481
rfoot -9.12795 -3.53422
rtoes 9.71261
lfemur -10.9607 1.7404 -15.7171
ltibia 68.1988
lfoot 1.41295 -8.40929
ltoes -2.2722
65
root -0.239497 18.1987 -10.8773 -4.14985 -1.21225 -4.30517
lowerback 10.8553 -0.152377 2.22099
upperback 0.102722 0.239613 2.65411
thorax -5.99414 0.0921544 1.49517
lowerneck -15.9864 -2.64637 -1.68967
upperneck 23.13 -3.21096 -0.237559
head 10.0264 -1.66315 -0.225863
rclavicle -6.10642e-015 3.06128e-014
rhumerus -33.5861 -26.6534 -74.3495
rradius 20.1352
rwrist 8.64564
rhand -16.6705 20.8944
rfingers 7.12502
rthumb 9.55328 -8.86899
lclavicle -6.10642e-015 3.06128e-014
lhumerus -29.5339 6.63737 81.8554
lradius 29.263
lwrist 7.86241
lhand -24.278 29.1072
lfingers 7.12502
lthumb 2.20884 59.0755
rfemur -12.433 7.0525 30.1805
rtibia 27.9891
rfoot -9.55088 -3.43266
rtoes 9.2864
lfemur -12.3659 1.70229 -15.5375
ltibia 68.4393
lfoot 1.65914 -8.43064
ltoes -7.03339
66
root -0.247079 18.2085 -10.7187 -4.07716 -1.41122 -4.48389
lowerback 10.7872 -0.0569897 2.51333
upperback 0.0237674 0.401604 2.62742
thorax -6.03883 0.162279 1.2771
lowerneck -15.6372 -2.71955 -1.8638
upperneck 23.1023 -3.3137 -0.0829143
head 9.95753 -1.709 -0.150735
rclavicle -1.42566e-015 1.07344e-014
rhumerus -33.1488 -25.8832 -74.8747
rradius 20.3768
rwrist 7.72365
rhand -15.1294 19.4307
rfingers 7.12502
rthumb 11.0399 -10.2589
lclavicle -1.42566e-015 1.07344e-014
lhumerus -30.0029 6.68323 81.7561
lradius 29.0313
lwrist 7.95033
lhand -24.2969 27.4563
lfingers 7.12502
lthumb 2.19061 57.4248
rfemur -12.0019 6.98761 30.4797
rtibia 28.0263
rfoot -9.81238 -3.29364
rtoes 9.89688
lfemur -13.3079 1.98767 -15.3236
ltibia 68.6487
lfoot 0.360946 -8.02718
ltoes 1.39481
67
root -0.253204 18.1895 -10.5573 -4.03038 -1.42352 -4.53817
lowerback 10.6962 0.00512074 2.70383
upperback 0.00869632 0.498069 2.52258
thorax -6.00128 0.202605 1.04421
lowerneck -15.6244 -2.83798 -1.75886
upperneck 23.1626 -3.48198 -0.188125
head 9.97381 -1.78979 -0.227548
rclavicle -1.88939e-014 4.37326e-015
rhumerus -32.5914 -25.6785 -75.2734
rradius 20.5489
rwrist 7.53084
rhand -14.825 21.5923
rfingers 7.12502
rthumb 11.3335 -8.08143
lclavicle -1.88939e-014 4.37326e-015
lhumerus -30.2858 6.70722 81.6394
lradius 28.7347
lwrist 7.82312
lhand -24.2847 26.8167
lfingers 7.12502
lthumb 2.20244 56.7851
rfemur -11.5775 7.03135 30.6456
rtibia 28.1313
rfoot -10.2715 -3.4316
rtoes 10.5869
lfemur -14.594 2.11241 -15.2757
ltibia 68.8313
lfoot -0.67818 -7.42222
ltoes 13.1447
68
root -0.262971 18.1804 -10.3991 -3.84975 -1.12813 -4.68469
lowerback 10.4641 -0.0748137 2.85328
upperback 0.0361542 0.398656 2.52968
thorax -5.84076 0.150909 0.982067
lowerneck -15.8298 -2.87332 -1.74282
upperneck 23.1791 -3.51075 -0.26803
head 10.017 -1.81012 -0.26552
rclavicle 1.04797e-014 -9.14409e-015
rhumerus -31.8525 -25.451 -75.6069
rradius 20.8747
rwrist 8.18867
rhand -15.738 24.9842
rfingers 7.12502
rthumb 10.4529 -4.73597
lclavicle 1.04797e-014 -9.14409e-015
lhumerus -30.4691 6.81533 81.5634
lradius 28.5868
lwrist 7.75963
lhand -23.9833 27.0062
lfingers 7.12502
lthumb 2.49351 56.9713
rfemur -11.3113 7.08702 30.8986
rtibia 28.3623
rfoot -11.055 -3.82729
rtoes 10.4854
lfemur -16.3112 1.95019 -15.1327
ltibia 68.8717
lfoot -1.95911 -6.72069
ltoes 5.1063
69
root -0.272142 18.1739 -10.2603 -3.98167 -1.88801 -4.66681
lowerback 10.767 0.259589 2.87727
upperback 0.208334 0.848285 2.43812
thorax -5.82593 0.370517 0.801958
lowerneck -16.1035 -2.92796 -1.68654
upperneck 23.0966 -3.60741 -0.221084
head 10.0398 -1.84291 -0.274942
rclavicle 6.64376e-015 3.10104e-014
rhumerus -30.7555 -24.5183 -76.5781
rradius 21.2985
rwrist 6.81826
rhand -18.4163 23.5872
rfingers 7.12502
rthumb 7.86855 -6.24641
lclavicle 6.64376e-015 3.10104e-014
lhumerus -30.5864 6.7436 81.4901
lradius 28.6558
lwrist 7.68507
lhand -23.615 26.6317
lfingers 7.12502
lthumb 2.84914 56.5924
rfemur -10.7838 7.3661 31.0472
rtibia 28.7075
rfoot -11.8668 -3.53233
rtoes 10.6075
lfemur -16.9482 2.67249 -15.1388
ltibia 68.6965
lfoot -4.72628 -5.59751
ltoes 3.80679
70
root -0.27765 18.1595 -10.1154 -4.00985 -2.24674 -4.81247
lowerback 10.8565 0.479157 3.2623
upperback 0.31229 1.17539 2.22636
thorax -5.75215 0.518851 0.311732
lowerneck -16.3262 -2.9789 -1.27456
upperneck 23.0863 -3.77249 -0.278257
head 10.0686 -1.88839 -0.38918
rclavicle -7.22458e-015 5.96354e-015
rhumerus -29.9839 -24.1095 -77.4123
rradius 21.997
rwrist 6.43804
rhand -22.4271 18.3987
rfingers 7.12502
rthumb 3.99636 -11.5436
lclavicle -7.22458e-015 5.96354e-015
lhumerus -30.6866 6.31662 81.3061
lradius 28.6979
lwrist 7.54056
lhand -23.4502 25.6502
lfingers 7.12502
lthumb 3.00829 55.6087
rfemur -10.3597 7.32789 31.2953
rtibia 28.9763
rfoot -12.6671 -3.30149
rtoes 10.9999
lfemur -17.9235 3.06862 -15.0126
ltibia 68.3663
lfoot -4.4382 -4.74939
ltoes 0.58528
71
root -0.280254 18.1392 -9.96457 -4.04163 -2.29194 -4.85496
lowerback 10.9579 0.512276 3.37846
upperback 0.246489 1.23909 2.18156
thorax -5.8742 0.544233 0.188478
lowerneck -16.0846 -2.9362 -1.29181
upperneck 23.1058 -3.72111 -0.240695
head 10.0307 -1.86267 -0.362274
rclavicle 3.05942e-015 -2.88238e-014
rhumerus -29.6192 -23.3607 -77.8227
rradius 22.8803
rwrist 6.54809
rhand -17.4668 20.5296
rfingers 7.12502
rthumb 8.78491 -9.26758
lclavicle 3.05942e-015 -2.88238e-014
lhumerus -31.1747 6.32918 81.1991
lradius 28.5542
lwrist 7.12932
lhand -23.6285 25.9054
lfingers 7.12502
lthumb 2.83615 55.8662
rfemur -9.89605 7.01862 31.4026
rtibia 29.1427
rfoot -13.1743 -3.11794
rtoes 8.68066
lfemur -19.0694 3.14602 -15.0609
ltibia 67.8569
lfoot -5.95787 -3.9316
ltoes 1.07201
72
root -0.28626 18.1306 -9.8095 -4.04109 -2.7665 -5.0515
lowerback 11.1111 0.641332 3.59711
upperback 0.275424 1.44747 2.22222
thorax -5.9216 0.640273 0.0737115
lowerneck -16.0909 -2.92337 -1.3171
upperneck 22.9532 -3.67366 -0.320256
head 9.97594 -1.85277 -0.377922
rclavicle -4.31425e-015 3.37934e-015
rhumerus -28.9068 -22.8319 -78.1782
rradius 23.1868
rwrist 6.6381
rhand -15.6618 21.5039
rfingers 7.12502
rthumb 10.5264 -8.21257
lclavicle -4.31425e-015 3.37934e-015
lhumerus -31.4657 6.48475 81.1469
lradius 28.281
lwrist 6.87503
lhand -24.0214 26.3145
lfingers 7.12502
lthumb 2.45666 56.2801
rfemur -9.29254 7.26108 31.7445
rtibia 29.254
rfoot -13.5858 -3.29292
rtoes 11.1446
lfemur -19.9919 3.56317 -14.8473
ltibia 67.1986
lfoot -5.78346 -2.9772
ltoes 0.464335
73
root -0.289634 18.1274 -9.65092 -3.97081 -3.15474 -5.40377
lowerback 11.097 0.785666 4.08173
upperback 0.393965 1.69471 2.22712
thorax -5.76923 0.751595 -0.231227
lowerneck -16.4524 -2.98876 -1.26401
upperneck 22.8377 -3.77404 -0.314031
head 10.0024 -1.89241 -0.402862
rclavicle -4.58447e-015 -1.39149e-014
rhumerus -28.0873 -22.3753 -78.6126
rradius 23.3993
rwrist 6.123
rhand -15.3496 20.7769
rfingers 7.12502
rthumb 10.8276 -8.92402
lclavicle -4.58447e-015 -1.39149e-014
lhumerus -31.5549 6.36571 81.118
lradius 28.0886
lwrist 6.82914
lhand -24.5601 25.4306
lfingers 7.12502
lthumb 1.93639 55.4016
rfemur -8.72317 7.49806 32.2393
rtibia 29.3643
rfoot -14.1879 -3.7181
rtoes 11.2619
lfemur -20.9081 3.92156 -14.4525
ltibia 66.4835
lfoot -6.03527 -2.08787
ltoes -1.16163
